<svg version="1.1" xmlns="http://www.w3.org/2000/svg" style="display: block;" viewBox="0 0 2048 2048" width="1254" height="1254" preserveAspectRatio="none">
<defs>
	<linearGradient id="Gradient1" gradientUnits="userSpaceOnUse" x1="1104.98" y1="971.43" x2="1748.67" y2="1101.69">
		<stop class="stop0" offset="0" stop-opacity="1" stop-color="rgb(13,99,131)"/>
		<stop class="stop1" offset="1" stop-opacity="1" stop-color="rgb(3,63,144)"/>
	</linearGradient>
	<linearGradient id="Gradient2" gradientUnits="userSpaceOnUse" x1="298.926" y1="828.555" x2="1183.09" y2="978.994">
		<stop class="stop0" offset="0" stop-opacity="1" stop-color="rgb(34,188,85)"/>
		<stop class="stop1" offset="1" stop-opacity="1" stop-color="rgb(23,135,118)"/>
	</linearGradient>
</defs>
<path transform="translate(0,0)" fill="rgb(73,113,75)" d="M 0 0 L 2048 0 L 2048 2048 L 0 2048 L 0 0 z"/>
<path transform="translate(0,0)" fill="url(#Gradient2)" d="M 830.056 247.109 C 845.851 245.485 855.619 242.76 870.712 238.335 C 881.238 235.249 897.037 238.348 906.982 232.589 C 927.401 225.543 951.751 230.437 976.022 224.339 C 991.624 220.419 1064.61 221.322 1081.4 222.387 C 1081.8 222.717 1082.19 223.064 1082.61 223.378 C 1088.48 227.813 1133.61 229.234 1143.7 230.641 C 1151.59 231.741 1159.27 234.435 1167.04 236.191 C 1175.73 238.157 1185.16 238.379 1194.04 238.419 C 1208.83 248.31 1213.9 243.132 1228.63 249.161 C 1258.89 261.539 1292.88 266.577 1321.63 282.997 C 1325.94 285.458 1335.32 284.856 1339.33 289.759 C 1348.8 296.229 1361.31 299.978 1371.34 305.434 C 1423.55 333.836 1474.33 366.207 1518.86 406.036 C 1530.13 416.196 1541.22 426.564 1552.1 437.136 C 1665.46 547.812 1742.61 699.667 1763.68 856.837 C 1764.1 859.966 1765.5 875.159 1766.86 876.299 L 1769.76 875.306 C 1770.92 878.577 1770.71 876.884 1769.97 880.595 C 1766.24 884.627 1766.96 891.645 1767.77 897.221 C 1770.63 915.797 1766.44 936.356 1767.55 954.446 C 1770.04 995.189 1766.44 1033.95 1759.18 1074.01 C 1754.33 1100.76 1750.5 1126.17 1740.66 1151.94 C 1738.57 1157.41 1738.23 1165.21 1736.19 1170.78 C 1722.42 1206.54 1709.27 1243.04 1691.31 1276.99 C 1683.82 1291.14 1679.23 1298.57 1673.65 1313.9 L 1671.21 1314 C 1667.75 1319.02 1665.3 1324.18 1662.18 1329.39 C 1646.1 1356.21 1627.3 1381.51 1607.75 1405.88 C 1602.91 1411.93 1598.48 1419.15 1593.46 1424.84 C 1484.15 1550.45 1335.83 1635.72 1172.28 1666.96 C 1164.22 1668.45 1099.62 1678.77 1097.82 1677.93 C 1091.09 1674.8 1079.26 1679.23 1071.11 1678.4 L 1068.38 1680.59 L 1066.47 1679.89 L 1065.8 1678.16 L 1066.23 1677.66 C 1064.87 1677.4 1066.12 1677.56 1064.56 1677.64 C 1031.2 1679.42 997.827 1679.15 964.584 1675.34 C 956.774 1674.45 946.768 1673.41 939.012 1673.66 C 933.432 1673.61 929.274 1673.96 923.987 1672.18 C 901.393 1672.05 878.307 1665.87 856.383 1661.37 C 840.943 1658.19 829.007 1656.69 814.631 1649.41 C 811.546 1648.47 804.308 1648.28 801.669 1647.22 C 787.197 1641.38 711.224 1618.24 707.934 1608.18 L 707.406 1608.03 L 705.003 1609.83 C 678.739 1595.19 657.3 1585.99 631.617 1568.83 C 598.282 1548.11 565.081 1524.78 535.48 1498.98 C 514.265 1480.49 493.529 1458.62 474.138 1438.15 C 469.492 1433.25 462.18 1426.45 458.823 1421.81 C 447.251 1405.81 434.423 1391.06 422.701 1375.13 C 400.007 1343.68 379.673 1310.6 361.866 1276.15 C 345.663 1244.78 333.825 1212.5 320.671 1179.8 C 315.417 1166.74 315.043 1153.49 307.53 1138.67 C 307.808 1137.54 308.732 1135.21 308.644 1134.15 C 308.225 1129.11 304.452 1121.93 303.064 1116.76 C 301.022 1109.16 300.115 1101.3 298.455 1093.61 C 296.883 1086.33 294.765 1079.2 293.601 1071.82 C 288.034 1036.58 284.734 999.74 283.258 964.09 C 281.971 932.999 285.061 902.933 288.365 872.068 C 308.345 685.398 407.208 511.307 551.608 392.295 C 581.735 367.465 615.168 345.179 648.563 324.956 C 689.726 300.029 735.09 281.529 780.089 264.873 C 790.718 260.939 824.127 252.816 830.056 247.109 z"/>
<path transform="translate(0,0)" fill="rgb(254,254,254)" d="M 979.086 1600.77 C 973.765 1598.82 938.242 1595.91 929.55 1594.51 C 894.49 1588.98 859.896 1580.82 826.065 1570.09 C 654.614 1514.17 511.75 1393.56 427.867 1233.92 C 350.737 1084.84 336.545 911.073 388.464 751.456 C 440.347 587.164 555.243 450.141 707.975 370.413 C 848.58 297.701 1009.83 275.295 1164.94 306.919 C 1197.95 313.636 1220.09 320.464 1251.68 330.604 C 1287.84 344.038 1314.31 354.974 1348.54 373.484 C 1474.15 441.471 1574.49 548.155 1634.66 677.697 C 1707.1 836.021 1712.98 1016.79 1650.97 1179.49 C 1589.8 1341.49 1466.33 1472.25 1308.1 1542.61 C 1229.36 1578.22 1144.52 1598.37 1058.18 1601.98 C 1029.49 1603 1006.9 1601.28 979.086 1600.77 z"/>
<path transform="translate(0,0)" fill="rgb(30,177,90)" d="M 1228.58 601.314 C 1234.08 600.772 1241.47 600.627 1246.94 601.286 C 1268.57 604.057 1288.2 615.373 1301.43 632.707 C 1311.75 646.134 1325.35 678.843 1333.21 695.973 C 1346.49 725.002 1359.91 753.96 1373.5 782.845 L 1554.09 1170.59 C 1567.51 1199.29 1588.21 1242.51 1601.71 1273.05 C 1601.6 1273.94 1601.49 1274.83 1601.37 1275.71 C 1597.24 1278.48 1454.6 1277.39 1438.3 1275.61 C 1391.93 1270.55 1369.16 1209.37 1352.04 1173.56 C 1346.15 1161.24 1331.88 1136.19 1328.89 1122.56 C 1321.97 1091.04 1346.63 1076.06 1366.08 1057.08 C 1373.66 1049.57 1380.4 1041.25 1386.18 1032.27 C 1390.76 1025.14 1399 1011.33 1393.53 1003.46 C 1385.76 999.799 1356.08 1011.59 1350.61 1005.69 C 1327.98 981.297 1308.17 948.473 1288.98 921.064 C 1284.42 914.553 1281.84 897.241 1275.36 893.184 C 1268.1 888.646 1248.46 885.905 1239.85 888.176 C 1226.3 892.197 1220.82 899.332 1206.75 891.553 C 1196.98 886.156 1185.02 885.029 1183.93 870.971 C 1183.07 859.753 1169.27 863.416 1161.71 864.264 C 1152.02 865.804 1144.62 870.359 1135.95 874.835 C 1130 873.984 1123.12 872.119 1117.17 870.675 C 1102.61 884.128 1103.38 889.668 1094.07 906.065 C 1092.76 908.367 1084.13 915.643 1081.69 917.599 C 1069.93 927.02 1063.24 935.596 1056.85 949.187 C 1060.05 962.187 1059.09 970.818 1053.43 982.45 C 1053.97 987.35 1054.15 992.535 1054.42 997.476 C 1071.94 1015.07 1077 1034.25 1101.43 1042.42 C 1113.52 1038.52 1116.16 1039.57 1128.46 1038.39 C 1134.45 1036.92 1140.94 1033.22 1146.65 1031.05 C 1159.97 1026 1161.5 1030.23 1164.41 1041.79 C 1170.97 1040.6 1176.13 1038.39 1180.85 1043.91 C 1182.29 1049.9 1178.77 1054.9 1175.97 1060.37 C 1186.79 1079.58 1189.49 1077.85 1178.06 1098.97 C 1168.06 1117.42 1157.74 1136.37 1148.21 1155.09 C 1140.25 1170.67 1132.39 1186.31 1124.64 1201.99 C 1107.62 1236.43 1092.22 1268.42 1049.06 1276.11 C 1038.14 1278.06 1025.83 1277.17 1014.66 1277.15 L 963.581 1277.01 L 900.32 1277.11 C 891.71 1277.13 860.766 1278.43 855.219 1274.44 C 855.74 1263.37 925.912 1123.33 935.705 1103.33 L 1080.57 810.476 L 1142.43 686.229 C 1164.77 641.752 1173 609.68 1228.58 601.314 z"/>
<path transform="translate(0,0)" fill="rgb(0,51,107)" d="M 645.701 561.432 C 655.281 560.277 690.672 561.019 701.453 561.026 L 816.405 561.056 L 1024.23 561.051 C 1057.38 561.051 1090.48 561.158 1123.67 560.918 C 1132.76 560.132 1146.99 565.941 1142.14 577.403 C 1136.72 590.218 1128.9 604.256 1122.43 616.749 L 1082.29 693.847 C 1076.6 704.552 1073.29 714.228 1059.51 714.498 C 1047.88 714.725 1036.3 714.551 1024.67 714.505 L 955.523 714.268 C 936.774 714.215 900.522 710.786 894.876 733.49 C 890.091 752.727 892.312 784.477 892.316 804.933 L 892.27 998.472 C 892.282 1027.15 893.432 1062.08 890.86 1090.43 C 890.13 1098.49 876.22 1123.65 871.59 1132.66 C 857.837 1161.9 828.765 1225.23 808.873 1246.53 C 791.14 1265.52 765.32 1277.53 739.199 1278.02 C 734.772 1278.11 728.525 1277.97 725.239 1274.48 C 723.308 1272.43 723.221 1270.8 723.041 1268.12 C 721.682 1247.92 722.801 1226.9 722.812 1206.64 L 722.855 1086.87 L 722.897 714.784 C 698.156 713.762 532.089 716.499 526.946 713.021 C 523.284 710.544 521.515 707.183 521.024 702.827 C 520.402 697.302 521.903 690.861 522.753 685.39 C 527.25 656.452 537.314 630.027 556.397 607.433 C 579.414 580.18 610.223 564.24 645.701 561.432 z"/>
<path transform="translate(0,0)" fill="url(#Gradient1)" d="M 1301.23 279.413 C 1321.42 285.884 1355.75 302.907 1374.89 312.811 C 1510.13 383.269 1620.01 494.162 1689.23 630.033 C 1773.85 794.703 1790.26 986.057 1734.91 1162.73 C 1676.12 1350.68 1544.24 1507.1 1368.92 1596.8 C 1272.85 1646.19 1173.61 1671.21 1066.23 1677.66 C 1064.87 1677.4 1066.12 1677.56 1064.56 1677.64 C 1031.2 1679.42 997.827 1679.15 964.584 1675.34 C 956.774 1674.45 946.768 1673.41 939.012 1673.66 L 939.563 1671.98 C 952.464 1668.55 966.338 1680.97 980.357 1664.67 C 975.333 1650.82 995.215 1636.06 998.14 1623.93 C 998.93 1620.65 997.172 1617.35 997.175 1614.1 C 997.177 1611.28 998.979 1609.47 1000.76 1607.54 C 1000.98 1607.3 1001.21 1607.06 1001.44 1606.82 L 1000.5 1604.99 C 995.589 1602.67 984.734 1602.27 978.949 1601.82 L 979.086 1600.77 C 1006.9 1601.28 1029.49 1603 1058.18 1601.98 C 1144.52 1598.37 1229.36 1578.22 1308.1 1542.61 C 1466.33 1472.25 1589.8 1341.49 1650.97 1179.49 C 1712.98 1016.79 1707.1 836.021 1634.66 677.697 C 1574.49 548.155 1474.15 441.471 1348.54 373.484 C 1314.31 354.974 1287.84 344.038 1251.68 330.604 C 1263.09 327.265 1260.52 334.328 1271.15 321.029 C 1273.3 320.916 1273.63 321.785 1275.88 323.35 C 1285.77 319.216 1279.24 313.667 1280.32 309.809 C 1284.6 305.862 1287.37 303.803 1289.31 298.196 C 1290.72 294.126 1292.3 290.401 1295.47 287.473 C 1298.13 287.238 1298.63 287.219 1301.17 286.497 L 1302 283.813 C 1301.23 281.448 1300.97 281.904 1301.23 279.413 z"/>
<path transform="translate(0,0)" fill="rgb(254,254,254)" d="M 830.056 247.109 C 845.851 245.485 855.619 242.76 870.712 238.335 C 881.238 235.249 897.037 238.348 906.982 232.589 C 927.401 225.543 951.751 230.437 976.022 224.339 C 991.624 220.419 1064.61 221.322 1081.4 222.387 C 1081.8 222.717 1082.19 223.064 1082.61 223.378 C 1088.48 227.813 1133.61 229.234 1143.7 230.641 C 1151.59 231.741 1159.27 234.435 1167.04 236.191 C 1175.73 238.157 1185.16 238.379 1194.04 238.419 C 1208.83 248.31 1213.9 243.132 1228.63 249.161 C 1258.89 261.539 1292.88 266.577 1321.63 282.997 C 1325.94 285.458 1335.32 284.856 1339.33 289.759 C 1348.8 296.229 1361.31 299.978 1371.34 305.434 C 1423.55 333.836 1474.33 366.207 1518.86 406.036 C 1530.13 416.196 1541.22 426.564 1552.1 437.136 C 1665.46 547.812 1742.61 699.667 1763.68 856.837 C 1764.1 859.966 1765.5 875.159 1766.86 876.299 L 1769.76 875.306 C 1770.92 878.577 1770.71 876.884 1769.97 880.595 C 1766.24 884.627 1766.96 891.645 1767.77 897.221 C 1770.63 915.797 1766.44 936.356 1767.55 954.446 C 1770.04 995.189 1766.44 1033.95 1759.18 1074.01 C 1754.33 1100.76 1750.5 1126.17 1740.66 1151.94 C 1738.57 1157.41 1738.23 1165.21 1736.19 1170.78 C 1722.42 1206.54 1709.27 1243.04 1691.31 1276.99 C 1683.82 1291.14 1679.23 1298.57 1673.65 1313.9 L 1671.21 1314 C 1667.75 1319.02 1665.3 1324.18 1662.18 1329.39 C 1646.1 1356.21 1627.3 1381.51 1607.75 1405.88 C 1602.91 1411.93 1598.48 1419.15 1593.46 1424.84 C 1484.15 1550.45 1335.83 1635.72 1172.28 1666.96 C 1164.22 1668.45 1099.62 1678.77 1097.82 1677.93 C 1091.09 1674.8 1079.26 1679.23 1071.11 1678.4 L 1068.38 1680.59 L 1066.47 1679.89 L 1065.8 1678.16 L 1066.23 1677.66 C 1173.61 1671.21 1272.85 1646.19 1368.92 1596.8 C 1544.24 1507.1 1676.12 1350.68 1734.91 1162.73 C 1790.26 986.057 1773.85 794.703 1689.23 630.033 C 1620.01 494.162 1510.13 383.269 1374.89 312.811 C 1355.75 302.907 1321.42 285.884 1301.23 279.413 C 1275.45 267.785 1237.3 256.576 1210.07 249.705 C 1060.03 212.194 902.075 221.829 757.705 277.297 C 574.377 347.415 426.649 487.853 347.352 667.401 C 271.899 837.803 267.11 1031.17 334.037 1205.1 C 388.964 1349.02 487.923 1471.92 616.807 1556.29 C 637.222 1569.59 658.218 1581.98 679.731 1593.42 C 684.026 1595.67 705.646 1606.03 707.406 1608.03 L 705.003 1609.83 C 678.739 1595.19 657.3 1585.99 631.617 1568.83 C 598.282 1548.11 565.081 1524.78 535.48 1498.98 C 514.265 1480.49 493.529 1458.62 474.138 1438.15 C 469.492 1433.25 462.18 1426.45 458.823 1421.81 C 447.251 1405.81 434.423 1391.06 422.701 1375.13 C 400.007 1343.68 379.673 1310.6 361.866 1276.15 C 345.663 1244.78 333.825 1212.5 320.671 1179.8 C 315.417 1166.74 315.043 1153.49 307.53 1138.67 C 307.808 1137.54 308.732 1135.21 308.644 1134.15 C 308.225 1129.11 304.452 1121.93 303.064 1116.76 C 301.022 1109.16 300.115 1101.3 298.455 1093.61 C 296.883 1086.33 294.765 1079.2 293.601 1071.82 C 288.034 1036.58 284.734 999.74 283.258 964.09 C 281.971 932.999 285.061 902.933 288.365 872.068 C 308.345 685.398 407.208 511.307 551.608 392.295 C 581.735 367.465 615.168 345.179 648.563 324.956 C 689.726 300.029 735.09 281.529 780.089 264.873 C 790.718 260.939 824.127 252.816 830.056 247.109 z"/>
<path transform="translate(0,0)" fill="rgb(254,254,254)" d="M 707.934 1608.18 C 713.854 1609.58 734.092 1619.82 741.713 1622.93 C 764.855 1632.18 788.374 1640.46 812.207 1647.74 C 844.243 1657.51 876.884 1664.27 909.928 1669.61 C 914.421 1670.33 919.702 1670.93 923.987 1672.18 C 901.393 1672.05 878.307 1665.87 856.383 1661.37 C 840.943 1658.19 829.007 1656.69 814.631 1649.41 C 811.546 1648.47 804.308 1648.28 801.669 1647.22 C 787.197 1641.38 711.224 1618.24 707.934 1608.18 z"/>
</svg>